<?xml version="1.0" standalone="no"?>
<!DOCTYPE svg PUBLIC "-//W3C//DTD SVG 20010904//EN"
 "http://www.w3.org/TR/2001/REC-SVG-20010904/DTD/svg10.dtd">
<svg version="1.0" xmlns="http://www.w3.org/2000/svg"
 width="400.000000pt" height="400.000000pt" viewBox="0 0 400.000000 400.000000"
 preserveAspectRatio="xMidYMid meet">
<metadata>
Created by potrace 1.11, written by Peter Selinger 2001-2013
</metadata>
<g transform="translate(0.000000,400.000000) scale(0.100000,-0.100000)"
fill="#000000" stroke="none">
<path d="M1825 3535 c-139 -22 -192 -33 -212 -43 -10 -5 -35 -13 -57 -16 -100
-18 -324 -110 -456 -187 -132 -76 -128 -72 -96 -113 14 -19 26 -39 26 -44 0
-5 7 -15 15 -22 8 -7 15 -19 15 -26 0 -13 -100 -85 -117 -84 -4 1 -24 25 -43
55 -24 38 -40 55 -55 55 -30 0 -236 -204 -323 -320 -92 -124 -130 -187 -209
-350 -189 -390 -226 -463 -267 -534 l-46 -77 0 -419 c0 -409 1 -420 20 -432
11 -7 20 -20 20 -29 0 -9 -9 -24 -20 -34 -16 -14 -20 -31 -20 -77 0 -51 2 -58
20 -58 49 0 133 25 218 66 l93 45 1701 -7 1702 -7 32 -32 c43 -44 112 -75 179
-82 l55 -6 0 59 c0 55 -2 60 -31 79 -32 21 -54 59 -43 77 4 6 22 8 40 5 l34
-6 0 448 0 448 -52 89 c-28 49 -92 168 -141 264 -89 173 -114 219 -197 355
-60 98 -102 157 -187 257 -95 112 -254 268 -273 268 -8 0 -28 -20 -43 -44 -49
-77 -58 -77 -144 0 l-23 22 35 52 c19 29 35 60 35 69 0 44 -302 201 -510 266
-123 38 -118 37 -275 63 -108 19 -303 22 -400 7z m1014 -907 c20 -65 67 -156
98 -187 38 -37 158 -122 210 -149 85 -43 239 -152 289 -204 61 -65 104 -122
104 -140 0 -8 8 -25 18 -38 14 -21 17 -47 17 -150 0 -117 -2 -129 -29 -183
-19 -38 -52 -80 -97 -121 -38 -35 -69 -68 -69 -73 0 -15 141 -34 180 -24 57
14 74 23 97 50 33 38 45 14 37 -74 -11 -117 -53 -204 -119 -245 -32 -20 -48
-20 -1556 -18 l-1523 3 -26 45 c-33 59 -62 152 -50 164 5 5 26 -6 51 -28 23
-20 50 -36 59 -36 9 0 22 -6 28 -12 19 -19 121 -15 160 5 34 18 45 60 19 70
-20 7 -86 138 -102 201 -62 239 11 547 183 776 125 166 306 287 486 324 64 14
204 8 310 -13 84 -17 197 -39 261 -50 33 -6 101 -18 150 -28 64 -11 148 -16
290 -17 192 -1 203 0 267 25 86 33 176 92 208 135 14 18 28 34 31 34 3 0 12
-19 18 -42z"/>
<path d="M68 595 c-5 -5 -8 -140 -8 -302 l0 -293 906 0 c721 0 904 3 898 12
-9 15 -119 151 -147 182 -20 22 -121 147 -172 211 -16 20 -59 71 -94 111 l-63
74 -217 0 c-119 0 -414 3 -656 6 -242 4 -443 3 -447 -1z"/>
<path d="M2966 593 l-370 -3 -26 -28 c-14 -15 -64 -74 -110 -132 -47 -58 -89
-110 -95 -116 -5 -6 -35 -41 -65 -78 -30 -37 -83 -101 -117 -142 -35 -41 -63
-79 -63 -85 0 -5 348 -9 915 -9 l915 0 -2 298 -3 297 -305 0 c-168 0 -471 -1
-674 -2z"/>
</g>
</svg>
